{
    "asset" : {
        "generator" : "Khronos Blender glTF 2.0 I/O",
        "version" : "2.0"
    },
    "scene" : 0,
    "scenes" : [
        {
            "name" : "Scene",
            "nodes" : [
                0
            ]
        }
    ],
    "nodes" : [
        {
            "mesh" : 0,
            "name" : "big_pole_LOD4"
        }
    ],
    "meshes" : [
        {
            "name" : "Plane.085",
            "primitives" : [
                {
                    "attributes" : {
                        "POSITION" : 0,
                        "TEXCOORD_0" : 1
                    },
                    "indices" : 2
                }
            ]
        }
    ],
    "accessors" : [
        {
            "bufferView" : 0,
            "componentType" : 5126,
            "count" : 288,
            "max" : [
                1.1919046640396118,
                1.1967829465866089,
                16.701770782470703
            ],
            "min" : [
                -63.34190368652344,
                -1.1714303493499756,
                0.019242018461227417
            ],
            "type" : "VEC3"
        },
        {
            "bufferView" : 1,
            "componentType" : 5126,
            "count" : 288,
            "type" : "VEC2"
        },
        {
            "bufferView" : 2,
            "componentType" : 5123,
            "count" : 432,
            "type" : "SCALAR"
        }
    ],
    "bufferViews" : [
        {
            "buffer" : 0,
            "byteLength" : 3456,
            "byteOffset" : 0
        },
        {
            "buffer" : 0,
            "byteLength" : 2304,
            "byteOffset" : 3456
        },
        {
            "buffer" : 0,
            "byteLength" : 864,
            "byteOffset" : 5760
        }
    ],
    "buffers" : [
        {
            "byteLength" : 6624,
            "uri" : "data:application/octet-stream;base64,"
        }
    ]
}
