{
    "asset" : {
        "generator" : "Khronos Blender glTF 2.0 I/O",
        "version" : "2.0"
    },
    "scene" : 0,
    "scenes" : [
        {
            "name" : "Scene",
            "nodes" : [
                0
            ]
        }
    ],
    "nodes" : [
        {
            "mesh" : 0,
            "name" : "Ayfra.005"
        }
    ],
    "meshes" : [
        {
            "name" : "Cube.027",
            "primitives" : [
                {
                    "attributes" : {
                        "POSITION" : 0,
                        "TEXCOORD_0" : 1,
                        "TEXCOORD_1" : 2,
                        "TEXCOORD_2" : 3,
                        "TEXCOORD_3" : 4,
                        "JOINTS_0" : 5,
                        "WEIGHTS_0" : 6
                    },
                    "indices" : 7
                }
            ]
        }
    ],
    "accessors" : [
        {
            "bufferView" : 0,
            "componentType" : 5126,
            "count" : 1711,
            "max" : [
                301.3119812011719,
                121.43225860595703,
                65.12469482421875
            ],
            "min" : [
                -155.8491973876953,
                -63.688228607177734,
                -1.956398844718933
            ],
            "type" : "VEC3"
        },
        {
            "bufferView" : 1,
            "componentType" : 5126,
            "count" : 1711,
            "type" : "VEC2"
        },
        {
            "bufferView" : 2,
            "componentType" : 5126,
            "count" : 1711,
            "type" : "VEC2"
        },
        {
            "bufferView" : 3,
            "componentType" : 5126,
            "count" : 1711,
            "type" : "VEC2"
        },
        {
            "bufferView" : 4,
            "componentType" : 5126,
            "count" : 1711,
            "type" : "VEC2"
        },
        {
            "bufferView" : 5,
            "componentType" : 5123,
            "count" : 1711,
            "type" : "VEC4"
        },
        {
            "bufferView" : 6,
            "componentType" : 5126,
            "count" : 1711,
            "type" : "VEC4"
        },
        {
            "bufferView" : 7,
            "componentType" : 5123,
            "count" : 2559,
            "type" : "SCALAR"
        }
    ],
    "bufferViews" : [
        {
            "buffer" : 0,
            "byteLength" : 20532,
            "byteOffset" : 0
        },
        {
            "buffer" : 0,
            "byteLength" : 13688,
            "byteOffset" : 20532
        },
        {
            "buffer" : 0,
            "byteLength" : 13688,
            "byteOffset" : 34220
        },
        {
            "buffer" : 0,
            "byteLength" : 13688,
            "byteOffset" : 47908
        },
        {
            "buffer" : 0,
            "byteLength" : 13688,
            "byteOffset" : 61596
        },
        {
            "buffer" : 0,
            "byteLength" : 13688,
            "byteOffset" : 75284
        },
        {
            "buffer" : 0,
            "byteLength" : 27376,
            "byteOffset" : 88972
        },
        {
            "buffer" : 0,
            "byteLength" : 5118,
            "byteOffset" : 116348
        }
    ],
    "buffers" : [
        {
            "byteLength" : 121468,
            "uri" : "data:application/octet-stream;base64,"
        }
    ]
}
