{
    "asset" : {
        "generator" : "Khronos glTF Blender I/O v0.9.10",
        "version" : "2.0"
    },
    "scene" : 0,
    "scenes" : [
        {
            "name" : "Scene",
            "nodes" : [
                0
            ]
        }
    ],
    "nodes" : [
        {
            "mesh" : 0,
            "name" : "glock"
        }
    ],
    "meshes" : [
        {
            "name" : "glock",
            "primitives" : [
                {
                    "attributes" : {
                        "POSITION" : 0,
                        "TEXCOORD_0" : 1,
                        "TEXCOORD_1" : 2
                    },
                    "indices" : 3
                }
            ]
        }
    ],
    "accessors" : [
        {
            "bufferView" : 0,
            "componentType" : 5126,
            "count" : 1689,
            "max" : [
                0.021699678152799606,
                0.33175456523895264,
                0.1288416087627411
            ],
            "min" : [
                -0.059083811938762665,
                -0.4157060384750366,
                -0.10986152291297913
            ],
            "type" : "VEC3"
        },
        {
            "bufferView" : 1,
            "componentType" : 5126,
            "count" : 1689,
            "type" : "VEC2"
        },
        {
            "bufferView" : 2,
            "componentType" : 5126,
            "count" : 1689,
            "type" : "VEC2"
        },
        {
            "bufferView" : 3,
            "componentType" : 5123,
            "count" : 5175,
            "type" : "SCALAR"
        }
    ],
    "bufferViews" : [
        {
            "buffer" : 0,
            "byteLength" : 20268,
            "byteOffset" : 0
        },
        {
            "buffer" : 0,
            "byteLength" : 13512,
            "byteOffset" : 20268
        },
        {
            "buffer" : 0,
            "byteLength" : 13512,
            "byteOffset" : 33780
        },
        {
            "buffer" : 0,
            "byteLength" : 10350,
            "byteOffset" : 47292
        }
    ],
    "buffers" : [
        {
            "byteLength" : 57644,
            "uri" : "data:application/octet-stream;base64,"
        }
    ]
}
