{
    "asset" : {
        "generator" : "Khronos glTF Blender I/O v0.9.10",
        "version" : "2.0"
    },
    "scene" : 0,
    "scenes" : [
        {
            "name" : "Scene",
            "nodes" : [
                0
            ]
        }
    ],
    "nodes" : [
        {
            "mesh" : 0,
            "name" : "glock"
        }
    ],
    "meshes" : [
        {
            "name" : "glock",
            "primitives" : [
                {
                    "attributes" : {
                        "POSITION" : 0,
                        "TEXCOORD_0" : 1,
                        "TEXCOORD_1" : 2
                    },
                    "indices" : 3
                }
            ]
        }
    ],
    "accessors" : [
        {
            "bufferView" : 0,
            "componentType" : 5126,
            "count" : 1685,
            "max" : [
                0.06120433285832405,
                0.9357198476791382,
                0.36340007185935974
            ],
            "min" : [
                -0.16664695739746094,
                -1.1725064516067505,
                -0.30986639857292175
            ],
            "type" : "VEC3"
        },
        {
            "bufferView" : 1,
            "componentType" : 5126,
            "count" : 1685,
            "type" : "VEC2"
        },
        {
            "bufferView" : 2,
            "componentType" : 5126,
            "count" : 1685,
            "type" : "VEC2"
        },
        {
            "bufferView" : 3,
            "componentType" : 5123,
            "count" : 5175,
            "type" : "SCALAR"
        }
    ],
    "bufferViews" : [
        {
            "buffer" : 0,
            "byteLength" : 20220,
            "byteOffset" : 0
        },
        {
            "buffer" : 0,
            "byteLength" : 13480,
            "byteOffset" : 20220
        },
        {
            "buffer" : 0,
            "byteLength" : 13480,
            "byteOffset" : 33700
        },
        {
            "buffer" : 0,
            "byteLength" : 10350,
            "byteOffset" : 47180
        }
    ],
    "buffers" : [
        {
            "byteLength" : 57532,
            "uri" : "data:application/octet-stream;base64,"
        }
    ]
}
