{
    "asset" : {
        "generator" : "Khronos glTF Blender I/O v0.9.10",
        "version" : "2.0"
    },
    "scene" : 0,
    "scenes" : [
        {
            "name" : "Scene",
            "nodes" : [
                0
            ]
        }
    ],
    "nodes" : [
        {
            "mesh" : 0,
            "name" : "Cylinder.001",
            "scale" : [
                0.38178563117980957,
                0.38178563117980957,
                0.38178563117980957
            ],
            "translation" : [
                -0.00389715563505888,
                0.00048226118087768555,
                0.01895076036453247
            ]
        }
    ],
    "meshes" : [
        {
            "name" : "Cylinder.002",
            "primitives" : [
                {
                    "attributes" : {
                        "POSITION" : 0,
                        "TEXCOORD_0" : 1,
                        "TEXCOORD_1" : 2
                    },
                    "indices" : 3
                }
            ]
        }
    ],
    "accessors" : [
        {
            "bufferView" : 0,
            "componentType" : 5126,
            "count" : 1708,
            "max" : [
                0.08495919406414032,
                0.6929408311843872,
                0.2293020486831665
            ],
            "min" : [
                -0.08495920151472092,
                -0.879253089427948,
                -0.2727813720703125
            ],
            "type" : "VEC3"
        },
        {
            "bufferView" : 1,
            "componentType" : 5126,
            "count" : 1708,
            "type" : "VEC2"
        },
        {
            "bufferView" : 2,
            "componentType" : 5126,
            "count" : 1708,
            "type" : "VEC2"
        },
        {
            "bufferView" : 3,
            "componentType" : 5123,
            "count" : 5175,
            "type" : "SCALAR"
        }
    ],
    "bufferViews" : [
        {
            "buffer" : 0,
            "byteLength" : 20496,
            "byteOffset" : 0
        },
        {
            "buffer" : 0,
            "byteLength" : 13664,
            "byteOffset" : 20496
        },
        {
            "buffer" : 0,
            "byteLength" : 13664,
            "byteOffset" : 34160
        },
        {
            "buffer" : 0,
            "byteLength" : 10350,
            "byteOffset" : 47824
        }
    ],
    "buffers" : [
        {
            "byteLength" : 58176,
            "uri" : "data:application/octet-stream;base64,"
        }
    ]
}
