{
    "asset" : {
        "generator" : "Khronos glTF Blender I/O v0.9.10",
        "version" : "2.0"
    },
    "scene" : 0,
    "scenes" : [
        {
            "name" : "Scene",
            "nodes" : [
                0
            ]
        }
    ],
    "nodes" : [
        {
            "mesh" : 0,
            "name" : "glock"
        }
    ],
    "meshes" : [
        {
            "name" : "glock",
            "primitives" : [
                {
                    "attributes" : {
                        "POSITION" : 0,
                        "TEXCOORD_0" : 1,
                        "TEXCOORD_1" : 2
                    },
                    "indices" : 3
                }
            ]
        }
    ],
    "accessors" : [
        {
            "bufferView" : 0,
            "componentType" : 5126,
            "count" : 1690,
            "max" : [
                0.004524219781160355,
                0.0691683441400528,
                0.026862507686018944
            ],
            "min" : [
                -0.012318531982600689,
                -0.08667159080505371,
                -0.022905301302671432
            ],
            "type" : "VEC3"
        },
        {
            "bufferView" : 1,
            "componentType" : 5126,
            "count" : 1690,
            "type" : "VEC2"
        },
        {
            "bufferView" : 2,
            "componentType" : 5126,
            "count" : 1690,
            "type" : "VEC2"
        },
        {
            "bufferView" : 3,
            "componentType" : 5123,
            "count" : 5175,
            "type" : "SCALAR"
        }
    ],
    "bufferViews" : [
        {
            "buffer" : 0,
            "byteLength" : 20280,
            "byteOffset" : 0
        },
        {
            "buffer" : 0,
            "byteLength" : 13520,
            "byteOffset" : 20280
        },
        {
            "buffer" : 0,
            "byteLength" : 13520,
            "byteOffset" : 33800
        },
        {
            "buffer" : 0,
            "byteLength" : 10350,
            "byteOffset" : 47320
        }
    ],
    "buffers" : [
        {
            "byteLength" : 57672,
            "uri" : "data:application/octet-stream;base64,"
        }
    ]
}
