{
    "asset" : {
        "generator" : "Khronos Blender glTF 2.0 I/O",
        "version" : "2.0"
    },
    "scene" : 0,
    "scenes" : [
        {
            "name" : "Scene",
            "nodes" : [
                0
            ]
        }
    ],
    "nodes" : [
        {
            "mesh" : 0,
            "name" : "AmbulanceLow.001"
        }
    ],
    "materials" : [
        {
            "name" : "bake",
            "pbrMetallicRoughness" : {
                "baseColorTexture" : {
                    "index" : 0,
                    "texCoord" : 0
                },
                "metallicFactor" : 0,
                "roughnessFactor" : 0.5
            }
        }
    ],
    "meshes" : [
        {
            "name" : "AmbulanceLow.001",
            "primitives" : [
                {
                    "attributes" : {
                        "POSITION" : 0,
                        "TEXCOORD_0" : 1
                    },
                    "indices" : 2,
                    "material" : 0
                }
            ]
        }
    ],
    "textures" : [
        {
            "source" : 0
        }
    ],
    "images" : [
        {
            "bufferView" : 3,
            "mimeType" : "image/png",
            "name" : "ambulance02_albedo"
        }
    ],
    "accessors" : [
        {
            "bufferView" : 0,
            "componentType" : 5126,
            "count" : 1438,
            "max" : [
                2.780844211578369,
                1.057519793510437,
                2.58107852935791
            ],
            "min" : [
                -2.7341809272766113,
                -1.2263994216918945,
                7.367134094238281e-05
            ],
            "type" : "VEC3"
        },
        {
            "bufferView" : 1,
            "componentType" : 5126,
            "count" : 1438,
            "type" : "VEC2"
        },
        {
            "bufferView" : 2,
            "componentType" : 5123,
            "count" : 4548,
            "type" : "SCALAR"
        }
    ],
    "bufferViews" : [
        {
            "buffer" : 0,
            "byteLength" : 17256,
            "byteOffset" : 0
        },
        {
            "buffer" : 0,
            "byteLength" : 11504,
            "byteOffset" : 17256
        },
        {
            "buffer" : 0,
            "byteLength" : 9096,
            "byteOffset" : 28760
        },
        {
            "buffer" : 0,
            "byteLength" : 485294,
            "byteOffset" : 37856
        }
    ],
    "buffers" : [
        {
            "byteLength" : 523152,
            "uri" : "data:application/octet-stream;base64,"
        }
    ]
}
