{
    "asset" : {
        "generator" : "Khronos Blender glTF 2.0 I/O",
        "version" : "2.0"
    },
    "scene" : 0,
    "scenes" : [
        {
            "name" : "Scene",
            "nodes" : [
                0,
                1
            ]
        }
    ],
    "nodes" : [
        {
            "mesh" : 0,
            "name" : "low_polyLOD3"
        },
        {
            "mesh" : 1,
            "name" : "details_low"
        }
    ],
    "meshes" : [
        {
            "name" : "Cube.025",
            "primitives" : [
                {
                    "attributes" : {
                        "POSITION" : 0,
                        "TEXCOORD_0" : 1,
                        "TEXCOORD_1" : 2
                    },
                    "indices" : 3
                }
            ]
        },
        {
            "name" : "Plane.044",
            "primitives" : [
                {
                    "attributes" : {
                        "POSITION" : 4,
                        "TEXCOORD_0" : 5
                    },
                    "indices" : 6
                }
            ]
        }
    ],
    "accessors" : [
        {
            "bufferView" : 0,
            "componentType" : 5126,
            "count" : 576,
            "max" : [
                2.749572992324829,
                1.1281927824020386,
                2.065152406692505
            ],
            "min" : [
                -3.0309832096099854,
                -1.1281925439834595,
                -0.005694025196135044
            ],
            "type" : "VEC3"
        },
        {
            "bufferView" : 1,
            "componentType" : 5126,
            "count" : 576,
            "type" : "VEC2"
        },
        {
            "bufferView" : 2,
            "componentType" : 5126,
            "count" : 576,
            "type" : "VEC2"
        },
        {
            "bufferView" : 3,
            "componentType" : 5123,
            "count" : 2607,
            "type" : "SCALAR"
        },
        {
            "bufferView" : 4,
            "componentType" : 5126,
            "count" : 460,
            "max" : [
                1.238280177116394,
                1.2459248304367065,
                2.2634222507476807
            ],
            "min" : [
                -0.09699742496013641,
                -1.2459248304367065,
                1.4016098976135254
            ],
            "type" : "VEC3"
        },
        {
            "bufferView" : 5,
            "componentType" : 5126,
            "count" : 460,
            "type" : "VEC2"
        },
        {
            "bufferView" : 6,
            "componentType" : 5123,
            "count" : 876,
            "type" : "SCALAR"
        }
    ],
    "bufferViews" : [
        {
            "buffer" : 0,
            "byteLength" : 6912,
            "byteOffset" : 0
        },
        {
            "buffer" : 0,
            "byteLength" : 4608,
            "byteOffset" : 6912
        },
        {
            "buffer" : 0,
            "byteLength" : 4608,
            "byteOffset" : 11520
        },
        {
            "buffer" : 0,
            "byteLength" : 5214,
            "byteOffset" : 16128
        },
        {
            "buffer" : 0,
            "byteLength" : 5520,
            "byteOffset" : 21344
        },
        {
            "buffer" : 0,
            "byteLength" : 3680,
            "byteOffset" : 26864
        },
        {
            "buffer" : 0,
            "byteLength" : 1752,
            "byteOffset" : 30544
        }
    ],
    "buffers" : [
        {
            "byteLength" : 32296,
            "uri" : "data:application/octet-stream;base64,"
        }
    ]
}
