{
    "asset" : {
        "generator" : "Khronos Blender glTF 2.0 I/O",
        "version" : "2.0"
    },
    "scene" : 0,
    "scenes" : [
        {
            "name" : "Scene",
            "nodes" : [
                0
            ]
        }
    ],
    "nodes" : [
        {
            "mesh" : 0,
            "name" : "police"
        }
    ],
    "meshes" : [
        {
            "name" : "Police",
            "primitives" : [
                {
                    "attributes" : {
                        "POSITION" : 0,
                        "TEXCOORD_0" : 1
                    },
                    "indices" : 2
                }
            ]
        }
    ],
    "accessors" : [
        {
            "bufferView" : 0,
            "componentType" : 5126,
            "count" : 3097,
            "max" : [
                0.5418002605438232,
                0.2024984061717987,
                1.6665723323822021
            ],
            "min" : [
                -0.5418002605438232,
                -0.3043922483921051,
                -0.0046100555919110775
            ],
            "type" : "VEC3"
        },
        {
            "bufferView" : 1,
            "componentType" : 5126,
            "count" : 3097,
            "type" : "VEC2"
        },
        {
            "bufferView" : 2,
            "componentType" : 5123,
            "count" : 14304,
            "type" : "SCALAR"
        }
    ],
    "bufferViews" : [
        {
            "buffer" : 0,
            "byteLength" : 37164,
            "byteOffset" : 0
        },
        {
            "buffer" : 0,
            "byteLength" : 24776,
            "byteOffset" : 37164
        },
        {
            "buffer" : 0,
            "byteLength" : 28608,
            "byteOffset" : 61940
        }
    ],
    "buffers" : [
        {
            "byteLength" : 90548,
            "uri" : "data:application/octet-stream;base64,"
        }
    ]
}
