{
    "asset" : {
        "generator" : "Khronos Blender glTF 2.0 I/O",
        "version" : "2.0"
    },
    "scene" : 0,
    "scenes" : [
        {
            "name" : "Scene",
            "nodes" : [
                0
            ]
        }
    ],
    "nodes" : [
        {
            "mesh" : 0,
            "name" : "coust_module_with_bar.003"
        }
    ],
    "meshes" : [
        {
            "name" : "Plane.002",
            "primitives" : [
                {
                    "attributes" : {
                        "POSITION" : 0,
                        "TEXCOORD_0" : 1
                    },
                    "indices" : 2
                }
            ]
        }
    ],
    "accessors" : [
        {
            "bufferView" : 0,
            "componentType" : 5126,
            "count" : 6120,
            "max" : [
                126.03628540039062,
                -70.19236755371094,
                2.0398576259613037
            ],
            "min" : [
                -24.56777000427246,
                -155.01622009277344,
                0.2757052183151245
            ],
            "type" : "VEC3"
        },
        {
            "bufferView" : 1,
            "componentType" : 5126,
            "count" : 6120,
            "type" : "VEC2"
        },
        {
            "bufferView" : 2,
            "componentType" : 5123,
            "count" : 14868,
            "type" : "SCALAR"
        }
    ],
    "bufferViews" : [
        {
            "buffer" : 0,
            "byteLength" : 73440,
            "byteOffset" : 0
        },
        {
            "buffer" : 0,
            "byteLength" : 48960,
            "byteOffset" : 73440
        },
        {
            "buffer" : 0,
            "byteLength" : 29736,
            "byteOffset" : 122400
        }
    ],
    "buffers" : [
        {
            "byteLength" : 152136,
            "uri" : "data:application/octet-stream;base64,"
        }
    ]
}
