{
    "asset" : {
        "generator" : "Khronos Blender glTF 2.0 I/O",
        "version" : "2.0"
    },
    "scene" : 0,
    "scenes" : [
        {
            "name" : "Scene",
            "nodes" : [
                9
            ]
        }
    ],
    "nodes" : [
        {
            "name" : "bone2.005",
            "rotation" : [
                -0.0024630320258438587,
                -4.768823600898031e-06,
                -1.1654850418096885e-08,
                0.9999969601631165
            ],
            "scale" : [
                1,
                1.0000001192092896,
                1
            ],
            "translation" : [
                1.118577230840856e-09,
                1.5126402378082275,
                1.4223644484445686e-09
            ]
        },
        {
            "children" : [
                0
            ],
            "name" : "bone2.001",
            "rotation" : [
                0.004769379738718271,
                -0.005116518121212721,
                -0.005096098408102989,
                0.999962568283081
            ],
            "scale" : [
                1,
                1.0000001192092896,
                0.9999999403953552
            ],
            "translation" : [
                -8.658389560878277e-10,
                1.5393540859222412,
                -5.966285243630409e-10
            ]
        },
        {
            "name" : "bone2.004",
            "rotation" : [
                -0.04978972673416138,
                -1.1903821928171965e-07,
                -6.400483254509481e-09,
                0.9987597465515137
            ],
            "scale" : [
                1,
                0.9999999403953552,
                0.9999999403953552
            ],
            "translation" : [
                -1.0878196121666406e-09,
                2.0634963512420654,
                1.7503002425200975e-07
            ]
        },
        {
            "children" : [
                2
            ],
            "name" : "bone2.002",
            "rotation" : [
                -0.6283384561538696,
                -0.0007474563317373395,
                -0.007186116650700569,
                0.777906596660614
            ],
            "scale" : [
                1.0000001192092896,
                1,
                1.0000001192092896
            ],
            "translation" : [
                -8.658389560878277e-10,
                1.5393540859222412,
                -5.966285243630409e-10
            ]
        },
        {
            "name" : "bone2.006",
            "rotation" : [
                -0.033923160284757614,
                -1.5186988093773834e-06,
                5.918751710964898e-08,
                0.9994244575500488
            ],
            "scale" : [
                1,
                0.9999999403953552,
                0.9999999403953552
            ],
            "translation" : [
                -1.4566576833630052e-09,
                2.1609010696411133,
                -1.7659942841419252e-07
            ]
        },
        {
            "children" : [
                4
            ],
            "name" : "bone2.003",
            "rotation" : [
                -1.2379895451886114e-05,
                0.7042326331138611,
                0.7099325656890869,
                0.007224884815514088
            ],
            "scale" : [
                0.9999999403953552,
                1.0000001192092896,
                1
            ],
            "translation" : [
                -8.658389560878277e-10,
                1.5393540859222412,
                -5.966285243630409e-10
            ]
        },
        {
            "children" : [
                1,
                3,
                5
            ],
            "name" : "bone2",
            "rotation" : [
                -0.002306401263922453,
                0.005108719225972891,
                0.005108719225972891,
                0.9999712705612183
            ],
            "scale" : [
                0.9999999403953552,
                1,
                1
            ],
            "translation" : [
                0,
                1,
                0
            ]
        },
        {
            "children" : [
                6
            ],
            "name" : "root",
            "rotation" : [
                0.7071068286895752,
                0,
                0,
                0.7071068286895752
            ]
        },
        {
            "mesh" : 0,
            "name" : "Cube.001",
            "skin" : 0
        },
        {
            "children" : [
                8,
                7
            ],
            "name" : "Armature.001"
        }
    ],
    "animations" : [
        {
            "channels" : [
                {
                    "sampler" : 0,
                    "target" : {
                        "node" : 6,
                        "path" : "rotation"
                    }
                }
            ],
            "name" : "Armature.001Action.002",
            "samplers" : [
                {
                    "input" : 6,
                    "interpolation" : "STEP",
                    "output" : 7
                }
            ]
        }
    ],
    "meshes" : [
        {
            "name" : "Cube.000",
            "primitives" : [
                {
                    "attributes" : {
                        "POSITION" : 0,
                        "TEXCOORD_0" : 1,
                        "JOINTS_0" : 2,
                        "WEIGHTS_0" : 3
                    },
                    "indices" : 4
                }
            ]
        }
    ],
    "skins" : [
        {
            "inverseBindMatrices" : 5,
            "joints" : [
                7,
                6,
                1,
                0,
                3,
                2,
                5,
                4
            ],
            "name" : "Armature.001"
        }
    ],
    "accessors" : [
        {
            "bufferView" : 0,
            "componentType" : 5126,
            "count" : 266,
            "max" : [
                0.557424008846283,
                2.1794087886810303,
                4.1649298667907715
            ],
            "min" : [
                -0.557424008846283,
                -2.362072229385376,
                0
            ],
            "type" : "VEC3"
        },
        {
            "bufferView" : 1,
            "componentType" : 5126,
            "count" : 266,
            "type" : "VEC2"
        },
        {
            "bufferView" : 2,
            "componentType" : 5123,
            "count" : 266,
            "type" : "VEC4"
        },
        {
            "bufferView" : 3,
            "componentType" : 5126,
            "count" : 266,
            "type" : "VEC4"
        },
        {
            "bufferView" : 4,
            "componentType" : 5123,
            "count" : 420,
            "type" : "SCALAR"
        },
        {
            "bufferView" : 5,
            "componentType" : 5126,
            "count" : 8,
            "type" : "MAT4"
        },
        {
            "bufferView" : 6,
            "componentType" : 5126,
            "count" : 2,
            "max" : [
                0.4166666666666667
            ],
            "min" : [
                0.041666666666666664
            ],
            "type" : "SCALAR"
        },
        {
            "bufferView" : 7,
            "componentType" : 5126,
            "count" : 2,
            "type" : "VEC4"
        }
    ],
    "bufferViews" : [
        {
            "buffer" : 0,
            "byteLength" : 3192,
            "byteOffset" : 0
        },
        {
            "buffer" : 0,
            "byteLength" : 2128,
            "byteOffset" : 3192
        },
        {
            "buffer" : 0,
            "byteLength" : 2128,
            "byteOffset" : 5320
        },
        {
            "buffer" : 0,
            "byteLength" : 4256,
            "byteOffset" : 7448
        },
        {
            "buffer" : 0,
            "byteLength" : 840,
            "byteOffset" : 11704
        },
        {
            "buffer" : 0,
            "byteLength" : 512,
            "byteOffset" : 12544
        },
        {
            "buffer" : 0,
            "byteLength" : 8,
            "byteOffset" : 13056
        },
        {
            "buffer" : 0,
            "byteLength" : 32,
            "byteOffset" : 13064
        }
    ],
    "buffers" : [
        {
            "byteLength" : 13096,
            "uri" : "data:application/octet-stream;base64,"
        }
    ]
}
