{
    "asset" : {
        "generator" : "Khronos Blender glTF 2.0 I/O",
        "version" : "2.0"
    },
    "scene" : 0,
    "scenes" : [
        {
            "name" : "Scene",
            "nodes" : [
                3
            ]
        }
    ],
    "nodes" : [
        {
            "name" : "bone2",
            "translation" : [
                -0.015764079988002777,
                1.539257526397705,
                -0.007020181510597467
            ]
        },
        {
            "children" : [
                0
            ],
            "name" : "root",
            "rotation" : [
                0.7071068286895752,
                0,
                0,
                0.7071068286895752
            ]
        },
        {
            "mesh" : 0,
            "name" : "Cube.001",
            "skin" : 0
        },
        {
            "children" : [
                2,
                1
            ],
            "name" : "Armature.001"
        }
    ],
    "meshes" : [
        {
            "name" : "Cube.000",
            "primitives" : [
                {
                    "attributes" : {
                        "POSITION" : 0,
                        "TEXCOORD_0" : 1,
                        "JOINTS_0" : 2,
                        "WEIGHTS_0" : 3
                    },
                    "indices" : 4
                }
            ]
        }
    ],
    "skins" : [
        {
            "inverseBindMatrices" : 5,
            "joints" : [
                1,
                0
            ],
            "name" : "Armature.001"
        }
    ],
    "accessors" : [
        {
            "bufferView" : 0,
            "componentType" : 5126,
            "count" : 104,
            "max" : [
                0.557424008846283,
                0.557424008846283,
                2.6001482009887695
            ],
            "min" : [
                -0.557424008846283,
                -0.557424008846283,
                0
            ],
            "type" : "VEC3"
        },
        {
            "bufferView" : 1,
            "componentType" : 5126,
            "count" : 104,
            "type" : "VEC2"
        },
        {
            "bufferView" : 2,
            "componentType" : 5123,
            "count" : 104,
            "type" : "VEC4"
        },
        {
            "bufferView" : 3,
            "componentType" : 5126,
            "count" : 104,
            "type" : "VEC4"
        },
        {
            "bufferView" : 4,
            "componentType" : 5123,
            "count" : 168,
            "type" : "SCALAR"
        },
        {
            "bufferView" : 5,
            "componentType" : 5126,
            "count" : 2,
            "type" : "MAT4"
        }
    ],
    "bufferViews" : [
        {
            "buffer" : 0,
            "byteLength" : 1248,
            "byteOffset" : 0
        },
        {
            "buffer" : 0,
            "byteLength" : 832,
            "byteOffset" : 1248
        },
        {
            "buffer" : 0,
            "byteLength" : 832,
            "byteOffset" : 2080
        },
        {
            "buffer" : 0,
            "byteLength" : 1664,
            "byteOffset" : 2912
        },
        {
            "buffer" : 0,
            "byteLength" : 336,
            "byteOffset" : 4576
        },
        {
            "buffer" : 0,
            "byteLength" : 128,
            "byteOffset" : 4912
        }
    ],
    "buffers" : [
        {
            "byteLength" : 5040,
            "uri" : "data:application/octet-stream;base64,"
        }
    ]
}
