{
    "asset" : {
        "generator" : "Khronos Blender glTF 2.0 I/O",
        "version" : "2.0"
    },
    "scene" : 0,
    "scenes" : [
        {
            "name" : "Scene",
            "nodes" : [
                2
            ]
        }
    ],
    "nodes" : [
        {
            "name" : "Bone",
            "rotation" : [
                0.7071043848991394,
                0.0018383587012067437,
                -0.0018383520655333996,
                0.7071043848991394
            ],
            "translation" : [
                0,
                0.008201360702514648,
                0.00041228532791137695
            ]
        },
        {
            "mesh" : 0,
            "name" : "Cube.001",
            "skin" : 0
        },
        {
            "children" : [
                1,
                0
            ],
            "name" : "Armature.001"
        }
    ],
    "meshes" : [
        {
            "name" : "Cube.000",
            "primitives" : [
                {
                    "attributes" : {
                        "POSITION" : 0,
                        "TEXCOORD_0" : 1,
                        "JOINTS_0" : 2,
                        "WEIGHTS_0" : 3
                    },
                    "indices" : 4
                }
            ]
        }
    ],
    "skins" : [
        {
            "inverseBindMatrices" : 5,
            "joints" : [
                0
            ],
            "name" : "Armature.001"
        }
    ],
    "accessors" : [
        {
            "bufferView" : 0,
            "componentType" : 5126,
            "count" : 20,
            "max" : [
                1,
                1,
                1.7533133029937744
            ],
            "min" : [
                -1,
                -1,
                0
            ],
            "type" : "VEC3"
        },
        {
            "bufferView" : 1,
            "componentType" : 5126,
            "count" : 20,
            "type" : "VEC2"
        },
        {
            "bufferView" : 2,
            "componentType" : 5123,
            "count" : 20,
            "type" : "VEC4"
        },
        {
            "bufferView" : 3,
            "componentType" : 5126,
            "count" : 20,
            "type" : "VEC4"
        },
        {
            "bufferView" : 4,
            "componentType" : 5123,
            "count" : 30,
            "type" : "SCALAR"
        },
        {
            "bufferView" : 5,
            "componentType" : 5126,
            "count" : 1,
            "type" : "MAT4"
        }
    ],
    "bufferViews" : [
        {
            "buffer" : 0,
            "byteLength" : 240,
            "byteOffset" : 0
        },
        {
            "buffer" : 0,
            "byteLength" : 160,
            "byteOffset" : 240
        },
        {
            "buffer" : 0,
            "byteLength" : 160,
            "byteOffset" : 400
        },
        {
            "buffer" : 0,
            "byteLength" : 320,
            "byteOffset" : 560
        },
        {
            "buffer" : 0,
            "byteLength" : 60,
            "byteOffset" : 880
        },
        {
            "buffer" : 0,
            "byteLength" : 64,
            "byteOffset" : 940
        }
    ],
    "buffers" : [
        {
            "byteLength" : 1004,
            "uri" : "data:application/octet-stream;base64,"
        }
    ]
}
