{
    "asset" : {
        "generator" : "Khronos Blender glTF 2.0 I/O",
        "version" : "2.0"
    },
    "scene" : 0,
    "scenes" : [
        {
            "name" : "Scene",
            "nodes" : [
                4
            ]
        }
    ],
    "nodes" : [
        {
            "name" : "bone1",
            "rotation" : [
                1.595535081833077e-08,
                4.940826414667754e-09,
                -0.002599827479571104,
                0.9999967217445374
            ],
            "translation" : [
                1.9111681126560143e-09,
                0.4617992043495178,
                4.155011177062988
            ]
        },
        {
            "name" : "bone2",
            "translation" : [
                0.3343397378921509,
                3.6814496517181396,
                -3.3202292919158936
            ]
        },
        {
            "children" : [
                0,
                1
            ],
            "name" : "root",
            "rotation" : [
                0.7071068286895752,
                0,
                0,
                0.7071068286895752
            ]
        },
        {
            "mesh" : 0,
            "name" : "Cube.001",
            "skin" : 0
        },
        {
            "children" : [
                3,
                2
            ],
            "name" : "Armature.001"
        }
    ],
    "meshes" : [
        {
            "name" : "Cube.000",
            "primitives" : [
                {
                    "attributes" : {
                        "POSITION" : 0,
                        "TEXCOORD_0" : 1,
                        "JOINTS_0" : 2,
                        "WEIGHTS_0" : 3
                    },
                    "indices" : 4
                }
            ]
        }
    ],
    "skins" : [
        {
            "inverseBindMatrices" : 5,
            "joints" : [
                2,
                0,
                1
            ],
            "name" : "Armature.001"
        }
    ],
    "accessors" : [
        {
            "bufferView" : 0,
            "componentType" : 5126,
            "count" : 48,
            "max" : [
                1,
                1.0107299089431763,
                5.530247688293457
            ],
            "min" : [
                -1,
                -1,
                0
            ],
            "type" : "VEC3"
        },
        {
            "bufferView" : 1,
            "componentType" : 5126,
            "count" : 48,
            "type" : "VEC2"
        },
        {
            "bufferView" : 2,
            "componentType" : 5123,
            "count" : 48,
            "type" : "VEC4"
        },
        {
            "bufferView" : 3,
            "componentType" : 5126,
            "count" : 48,
            "type" : "VEC4"
        },
        {
            "bufferView" : 4,
            "componentType" : 5123,
            "count" : 72,
            "type" : "SCALAR"
        },
        {
            "bufferView" : 5,
            "componentType" : 5126,
            "count" : 3,
            "type" : "MAT4"
        }
    ],
    "bufferViews" : [
        {
            "buffer" : 0,
            "byteLength" : 576,
            "byteOffset" : 0
        },
        {
            "buffer" : 0,
            "byteLength" : 384,
            "byteOffset" : 576
        },
        {
            "buffer" : 0,
            "byteLength" : 384,
            "byteOffset" : 960
        },
        {
            "buffer" : 0,
            "byteLength" : 768,
            "byteOffset" : 1344
        },
        {
            "buffer" : 0,
            "byteLength" : 144,
            "byteOffset" : 2112
        },
        {
            "buffer" : 0,
            "byteLength" : 192,
            "byteOffset" : 2256
        }
    ],
    "buffers" : [
        {
            "byteLength" : 2448,
            "uri" : "data:application/octet-stream;base64,"
        }
    ]
}
