{
    "asset" : {
        "generator" : "Khronos Blender glTF 2.0 I/O",
        "version" : "2.0"
    },
    "scene" : 0,
    "scenes" : [
        {
            "name" : "Scene",
            "nodes" : [
                0,
                1
            ]
        }
    ],
    "nodes" : [
        {
            "mesh" : 0,
            "name" : "reto",
            "rotation" : [
                0,
                0,
                0.7071068286895752,
                0.7071067690849304
            ]
        },
        {
            "mesh" : 1,
            "name" : "details_low"
        }
    ],
    "meshes" : [
        {
            "name" : "Cube.042",
            "primitives" : [
                {
                    "attributes" : {
                        "POSITION" : 0,
                        "TEXCOORD_0" : 1,
                        "TEXCOORD_1" : 2
                    },
                    "indices" : 3
                }
            ]
        },
        {
            "name" : "Plane.044",
            "primitives" : [
                {
                    "attributes" : {
                        "POSITION" : 4,
                        "TEXCOORD_0" : 5
                    },
                    "indices" : 6
                }
            ]
        }
    ],
    "accessors" : [
        {
            "bufferView" : 0,
            "componentType" : 5126,
            "count" : 673,
            "max" : [
                1.128192663192749,
                3.0309832096099854,
                2.124290943145752
            ],
            "min" : [
                -1.128192663192749,
                -2.9206464290618896,
                -0.005694025196135044
            ],
            "type" : "VEC3"
        },
        {
            "bufferView" : 1,
            "componentType" : 5126,
            "count" : 673,
            "type" : "VEC2"
        },
        {
            "bufferView" : 2,
            "componentType" : 5126,
            "count" : 673,
            "type" : "VEC2"
        },
        {
            "bufferView" : 3,
            "componentType" : 5123,
            "count" : 3075,
            "type" : "SCALAR"
        },
        {
            "bufferView" : 4,
            "componentType" : 5126,
            "count" : 460,
            "max" : [
                1.238280177116394,
                1.2459248304367065,
                2.2634222507476807
            ],
            "min" : [
                -0.09699742496013641,
                -1.2459248304367065,
                1.4016098976135254
            ],
            "type" : "VEC3"
        },
        {
            "bufferView" : 5,
            "componentType" : 5126,
            "count" : 460,
            "type" : "VEC2"
        },
        {
            "bufferView" : 6,
            "componentType" : 5123,
            "count" : 876,
            "type" : "SCALAR"
        }
    ],
    "bufferViews" : [
        {
            "buffer" : 0,
            "byteLength" : 8076,
            "byteOffset" : 0
        },
        {
            "buffer" : 0,
            "byteLength" : 5384,
            "byteOffset" : 8076
        },
        {
            "buffer" : 0,
            "byteLength" : 5384,
            "byteOffset" : 13460
        },
        {
            "buffer" : 0,
            "byteLength" : 6150,
            "byteOffset" : 18844
        },
        {
            "buffer" : 0,
            "byteLength" : 5520,
            "byteOffset" : 24996
        },
        {
            "buffer" : 0,
            "byteLength" : 3680,
            "byteOffset" : 30516
        },
        {
            "buffer" : 0,
            "byteLength" : 1752,
            "byteOffset" : 34196
        }
    ],
    "buffers" : [
        {
            "byteLength" : 35948,
            "uri" : "data:application/octet-stream;base64,"
        }
    ]
}
