{
    "asset" : {
        "generator" : "Khronos Blender glTF 2.0 I/O",
        "version" : "2.0"
    },
    "scene" : 0,
    "scenes" : [
        {
            "name" : "Scene",
            "nodes" : [
                5
            ]
        }
    ],
    "nodes" : [
        {
            "name" : "Bone.003",
            "rotation" : [
                0.3376960754394531,
                6.690821123811475e-07,
                2.423079195068567e-07,
                0.9412552118301392
            ],
            "translation" : [
                1.5485451809738038e-09,
                1.8170490264892578,
                -7.661538625747255e-10
            ]
        },
        {
            "children" : [
                0
            ],
            "name" : "Bone.002",
            "rotation" : [
                0.24300633370876312,
                0.6599596738815308,
                -0.25391143560409546,
                0.6640257239341736
            ],
            "scale" : [
                0.9999998807907104,
                0.9999998211860657,
                0.9999998211860657
            ],
            "translation" : [
                6.10214101470774e-10,
                1.6609854698181152,
                -1.778289515641518e-09
            ]
        },
        {
            "children" : [
                1
            ],
            "name" : "Bone.001",
            "rotation" : [
                0.007657663431018591,
                -0.7070778608322144,
                0.0076573193073272705,
                0.7070528268814087
            ],
            "scale" : [
                1,
                0.9999999403953552,
                0.9999999403953552
            ],
            "translation" : [
                -1.706157715108958e-10,
                1.314400315284729,
                -1.3390059894202722e-11
            ]
        },
        {
            "children" : [
                2
            ],
            "name" : "Bone",
            "rotation" : [
                0.7071043848991394,
                0.0018383587012067437,
                -0.0018383520655333996,
                0.7071043848991394
            ],
            "translation" : [
                0,
                0.008201360702514648,
                0.00041228532791137695
            ]
        },
        {
            "mesh" : 0,
            "name" : "Cube",
            "skin" : 0
        },
        {
            "children" : [
                4,
                3
            ],
            "name" : "Armature"
        }
    ],
    "meshes" : [
        {
            "name" : "Cube.001",
            "primitives" : [
                {
                    "attributes" : {
                        "POSITION" : 0,
                        "TEXCOORD_0" : 1,
                        "JOINTS_0" : 2,
                        "WEIGHTS_0" : 3
                    },
                    "indices" : 4
                }
            ]
        }
    ],
    "skins" : [
        {
            "inverseBindMatrices" : 5,
            "joints" : [
                3,
                2,
                1,
                0
            ],
            "name" : "Armature"
        }
    ],
    "accessors" : [
        {
            "bufferView" : 0,
            "componentType" : 5126,
            "count" : 64,
            "max" : [
                1,
                1,
                6.641813278198242
            ],
            "min" : [
                -1,
                -1,
                0
            ],
            "type" : "VEC3"
        },
        {
            "bufferView" : 1,
            "componentType" : 5126,
            "count" : 64,
            "type" : "VEC2"
        },
        {
            "bufferView" : 2,
            "componentType" : 5123,
            "count" : 64,
            "type" : "VEC4"
        },
        {
            "bufferView" : 3,
            "componentType" : 5126,
            "count" : 64,
            "type" : "VEC4"
        },
        {
            "bufferView" : 4,
            "componentType" : 5123,
            "count" : 108,
            "type" : "SCALAR"
        },
        {
            "bufferView" : 5,
            "componentType" : 5126,
            "count" : 4,
            "type" : "MAT4"
        }
    ],
    "bufferViews" : [
        {
            "buffer" : 0,
            "byteLength" : 768,
            "byteOffset" : 0
        },
        {
            "buffer" : 0,
            "byteLength" : 512,
            "byteOffset" : 768
        },
        {
            "buffer" : 0,
            "byteLength" : 512,
            "byteOffset" : 1280
        },
        {
            "buffer" : 0,
            "byteLength" : 1024,
            "byteOffset" : 1792
        },
        {
            "buffer" : 0,
            "byteLength" : 216,
            "byteOffset" : 2816
        },
        {
            "buffer" : 0,
            "byteLength" : 256,
            "byteOffset" : 3032
        }
    ],
    "buffers" : [
        {
            "byteLength" : 3288,
            "uri" : "data:application/octet-stream;base64,"
        }
    ]
}
